# xmcd CD database file
#
# Track frame offsets:
#	150
#	25585
#	44802
#	67600
#	92817
#	119282
#	142585
#	161292
#	187492
#	207050
#
# Disc length: 3102 seconds
#
# Revision: 4
# Processed by: cddbd v1.4PL0 Copyright (c) Steve Scherf et al.
# Submitted via: CDex 1.40Release
#
DISCID=7f0c1c0a
DTITLE=Nhu Quynh and Manh Dinh and Lam Thuy Van - Chuyen Hoa Sim Asia
DYEAR=1900
DGENRE=Blues
TTITLE0=Nhu Quynh - Chuyen Hoa Sim
TTITLE1=Nhu Quynh - Nguoi Tinh Mua Dong
TTITLE2=Manh Dinh and Nhu Quynh - Mua
TTITLE3=Mong Du
TTITLE4=Bien Dau
TTITLE5=Manh Dinh and Nhu Quynh - La Dieu Bong
TTITLE6=Chuyen Hoa Tigon
TTITLE7=Manh Dinh and Nhu Quynh and Lam Thuy VanLien Khuc Mua
TTITLE8=Xin Nguoi Ve
TTITLE9=Manh Dinh and Nhu Quynh - Mua qua pho vang
EXTD=ID3G: 0
EXTT0=
EXTT1=
EXTT2=
EXTT3=
EXTT4=
EXTT5=
EXTT6=
EXTT7=
EXTT8=
EXTT9=
PLAYORDER=
